<?xml version="1.0" encoding="iso-8859-1"?>
<!-- Uploaded to: SVG Repo, www.svgrepo.com, Generator: SVG Repo Mixer Tools -->
<svg height="800px" width="800px" version="1.1" id="Capa_1" xmlns="http://www.w3.org/2000/svg" xmlns:xlink="http://www.w3.org/1999/xlink" 
	 viewBox="0 0 413.182 413.182" xml:space="preserve">
<g>
	<path style="fill:#010002;" d="M413.182,200.621h-0.143c-1.402-48.666-19.905-95.154-52.544-131.468
		c-38.051-42.341-92.093-66.99-148.826-68.154V0.886h-4.195h-1.772h-4.195v0.113C144.774,2.163,90.732,26.812,52.687,69.153
		c-32.645,36.314-51.142,82.802-52.55,131.468H0v5.967v5.967h0.137c1.408,48.666,19.911,95.148,52.556,131.468
		c38.045,42.347,92.093,66.996,148.82,68.16v0.113h4.195h1.772h4.195v-0.113c56.733-1.164,110.775-25.813,148.826-68.154
		c32.639-36.314,51.136-82.808,52.544-131.474h0.131v-5.716c0-0.084,0.006-0.167,0.006-0.251V200.621z M401.147,200.621h-78.936
		c-0.656-27.907-5.919-55.009-15.687-80.726c18.33-10.084,34.882-22.77,49.334-37.836
		C383.879,115.414,399.816,157.069,401.147,200.621z M121.802,298.931c24.512-11.832,50.677-18.223,77.939-19.034v111.98
		C165.986,370.307,138.676,337.764,121.802,298.931z M213.441,145.219c28.802-0.811,56.453-7.482,82.391-19.876
		c8.956,24.005,13.807,49.262,14.446,75.278h-96.836V145.219z M213.441,133.285V21.305c33.749,21.564,61.059,54.102,77.939,92.946
		C266.868,126.077,240.704,132.473,213.441,133.285z M199.735,133.285c-27.257-0.812-53.415-7.208-77.939-19.04
		c16.874-38.838,44.185-71.376,77.939-92.94V133.285z M117.344,125.343c25.938,12.393,53.582,19.064,82.385,19.876v55.402h-96.83
		C103.543,174.606,108.388,149.342,117.344,125.343z M199.741,212.555v55.402c-28.802,0.811-56.453,7.482-82.385,19.882
		c-8.962-24.005-13.807-49.268-14.452-75.284H199.741z M213.441,279.891c27.257,0.817,53.421,7.208,77.945,19.034
		c-16.874,38.844-44.185,71.382-77.945,92.94V279.891z M295.837,287.833c-25.938-12.393-53.588-19.064-82.396-19.876v-55.402h96.836
		C309.645,238.57,304.794,263.834,295.837,287.833z M347.767,73.061c-13.425,14.124-28.79,26.039-45.814,35.569
		c-17.28-39.334-44.769-72.509-78.709-95.166C270.466,17.343,314.908,38.555,347.767,73.061z M189.931,13.464
		c-33.94,22.656-61.435,55.832-78.709,95.166c-17.023-9.529-32.388-21.445-45.82-35.569
		C98.268,38.555,142.704,17.343,189.931,13.464z M57.318,82.059c14.452,15.066,31.004,27.752,49.334,37.836
		c-9.762,25.723-15.031,52.819-15.687,80.726H12.023C13.36,157.069,29.297,115.408,57.318,82.059z M12.023,212.555h78.948
		c0.656,27.919,5.925,55.015,15.687,80.732c-18.336,10.084-34.888,22.77-49.334,37.83C29.303,297.768,13.36,256.113,12.023,212.555z
		 M65.409,340.115c13.425-14.112,28.784-26.033,45.82-35.569c17.28,39.334,44.769,72.509,78.715,95.166
		C142.716,395.839,98.28,374.627,65.409,340.115z M223.244,399.712c33.94-22.656,61.435-55.832,78.709-95.166
		c17.035,9.541,32.406,21.457,45.826,35.569C314.913,374.621,270.472,395.839,223.244,399.712z M355.864,331.117
		c-14.446-15.054-30.992-27.74-49.334-37.836c9.768-25.717,15.031-52.813,15.687-80.726h78.936
		C399.822,256.113,383.885,297.768,355.864,331.117z"/>
</g>
</svg>